<mxfile host="Electron" agent="Mozilla/5.0 (Windows NT 10.0; Win64; x64) AppleWebKit/537.36 (KHTML, like Gecko) draw.io/26.0.16 Chrome/132.0.6834.196 Electron/34.2.0 Safari/537.36" version="26.0.16">
  <diagram name="Page-1" id="Z9NpXjgtpKMIk1FBdiaw">
    <mxGraphModel dx="1434" dy="884" grid="1" gridSize="10" guides="1" tooltips="1" connect="1" arrows="1" fold="1" page="1" pageScale="1" pageWidth="850" pageHeight="1100" math="0" shadow="0">
      <root>
        <mxCell id="0" />
        <mxCell id="1" parent="0" />
        <mxCell id="DfOeb95ZS5GTr3-IJFD_-10" style="edgeStyle=orthogonalEdgeStyle;rounded=0;orthogonalLoop=1;jettySize=auto;html=1;fontSize=16;" edge="1" parent="1" source="DfOeb95ZS5GTr3-IJFD_-1" target="DfOeb95ZS5GTr3-IJFD_-2">
          <mxGeometry relative="1" as="geometry" />
        </mxCell>
        <mxCell id="DfOeb95ZS5GTr3-IJFD_-1" value="Start" style="strokeWidth=2;html=1;shape=mxgraph.flowchart.start_1;whiteSpace=wrap;fillColor=#ffe6cc;strokeColor=#d79b00;fontSize=16;fontStyle=1" vertex="1" parent="1">
          <mxGeometry x="375" y="250" width="100" height="60" as="geometry" />
        </mxCell>
        <mxCell id="DfOeb95ZS5GTr3-IJFD_-11" style="edgeStyle=orthogonalEdgeStyle;rounded=0;orthogonalLoop=1;jettySize=auto;html=1;entryX=0.5;entryY=0;entryDx=0;entryDy=0;fontSize=16;" edge="1" parent="1" source="DfOeb95ZS5GTr3-IJFD_-2" target="DfOeb95ZS5GTr3-IJFD_-3">
          <mxGeometry relative="1" as="geometry" />
        </mxCell>
        <mxCell id="DfOeb95ZS5GTr3-IJFD_-2" value="Sum = 0, C = 0" style="rounded=1;whiteSpace=wrap;html=1;absoluteArcSize=1;arcSize=14;strokeWidth=2;fillColor=#ffe6cc;strokeColor=#d79b00;fontSize=16;align=center;" vertex="1" parent="1">
          <mxGeometry x="330" y="370" width="190" height="100" as="geometry" />
        </mxCell>
        <mxCell id="DfOeb95ZS5GTr3-IJFD_-12" style="edgeStyle=orthogonalEdgeStyle;rounded=0;orthogonalLoop=1;jettySize=auto;html=1;fontSize=16;" edge="1" parent="1" source="DfOeb95ZS5GTr3-IJFD_-3" target="DfOeb95ZS5GTr3-IJFD_-4">
          <mxGeometry relative="1" as="geometry" />
        </mxCell>
        <mxCell id="DfOeb95ZS5GTr3-IJFD_-3" value="Enter Exam&lt;div&gt;Scores, S&lt;/div&gt;" style="shape=parallelogram;html=1;strokeWidth=2;perimeter=parallelogramPerimeter;whiteSpace=wrap;rounded=1;arcSize=12;size=0.23;fillColor=#ffe6cc;strokeColor=#d79b00;fontSize=16;" vertex="1" parent="1">
          <mxGeometry x="330" y="530" width="190" height="70" as="geometry" />
        </mxCell>
        <mxCell id="DfOeb95ZS5GTr3-IJFD_-13" style="edgeStyle=orthogonalEdgeStyle;rounded=0;orthogonalLoop=1;jettySize=auto;html=1;entryX=0.5;entryY=0;entryDx=0;entryDy=0;fontSize=16;" edge="1" parent="1" source="DfOeb95ZS5GTr3-IJFD_-4" target="DfOeb95ZS5GTr3-IJFD_-5">
          <mxGeometry relative="1" as="geometry" />
        </mxCell>
        <mxCell id="DfOeb95ZS5GTr3-IJFD_-4" value="Sum = Sum + S" style="rounded=1;whiteSpace=wrap;html=1;absoluteArcSize=1;arcSize=14;strokeWidth=2;fillColor=#ffe6cc;strokeColor=#d79b00;fontSize=16;fontStyle=1" vertex="1" parent="1">
          <mxGeometry x="330" y="660" width="190" height="100" as="geometry" />
        </mxCell>
        <mxCell id="DfOeb95ZS5GTr3-IJFD_-5" value="C = C + 1" style="rounded=1;whiteSpace=wrap;html=1;absoluteArcSize=1;arcSize=14;strokeWidth=2;fillColor=#ffe6cc;strokeColor=#d79b00;fontSize=16;fontStyle=1" vertex="1" parent="1">
          <mxGeometry x="330" y="820" width="190" height="100" as="geometry" />
        </mxCell>
        <mxCell id="DfOeb95ZS5GTr3-IJFD_-15" style="edgeStyle=orthogonalEdgeStyle;rounded=0;orthogonalLoop=1;jettySize=auto;html=1;entryX=0.5;entryY=0;entryDx=0;entryDy=0;fontSize=16;" edge="1" parent="1" source="DfOeb95ZS5GTr3-IJFD_-6" target="DfOeb95ZS5GTr3-IJFD_-7">
          <mxGeometry relative="1" as="geometry" />
        </mxCell>
        <mxCell id="DfOeb95ZS5GTr3-IJFD_-18" style="edgeStyle=orthogonalEdgeStyle;rounded=0;orthogonalLoop=1;jettySize=auto;html=1;" edge="1" parent="1" source="DfOeb95ZS5GTr3-IJFD_-6">
          <mxGeometry relative="1" as="geometry">
            <mxPoint x="425" y="500" as="targetPoint" />
            <Array as="points">
              <mxPoint x="161" y="1030" />
            </Array>
          </mxGeometry>
        </mxCell>
        <mxCell id="DfOeb95ZS5GTr3-IJFD_-6" value="IS&lt;div&gt;C = 25 ?&lt;/div&gt;" style="strokeWidth=2;html=1;shape=mxgraph.flowchart.decision;whiteSpace=wrap;fillColor=#ffe6cc;strokeColor=#d79b00;fontSize=16;fontStyle=1" vertex="1" parent="1">
          <mxGeometry x="340" y="970" width="170" height="120" as="geometry" />
        </mxCell>
        <mxCell id="DfOeb95ZS5GTr3-IJFD_-16" style="edgeStyle=orthogonalEdgeStyle;rounded=0;orthogonalLoop=1;jettySize=auto;html=1;entryX=0.5;entryY=0;entryDx=0;entryDy=0;fontSize=16;" edge="1" parent="1" source="DfOeb95ZS5GTr3-IJFD_-7" target="DfOeb95ZS5GTr3-IJFD_-8">
          <mxGeometry relative="1" as="geometry" />
        </mxCell>
        <mxCell id="DfOeb95ZS5GTr3-IJFD_-7" value="Av = Sum/25" style="rounded=1;whiteSpace=wrap;html=1;absoluteArcSize=1;arcSize=14;strokeWidth=2;fillColor=#ffe6cc;strokeColor=#d79b00;fontSize=16;fontStyle=1" vertex="1" parent="1">
          <mxGeometry x="330" y="1140" width="190" height="100" as="geometry" />
        </mxCell>
        <mxCell id="DfOeb95ZS5GTr3-IJFD_-8" value="Print Av" style="shape=parallelogram;html=1;strokeWidth=2;perimeter=parallelogramPerimeter;whiteSpace=wrap;rounded=1;arcSize=12;size=0.23;fillColor=#ffe6cc;strokeColor=#d79b00;fontSize=16;" vertex="1" parent="1">
          <mxGeometry x="330" y="1300" width="190" height="60" as="geometry" />
        </mxCell>
        <mxCell id="DfOeb95ZS5GTr3-IJFD_-9" value="End" style="strokeWidth=2;html=1;shape=mxgraph.flowchart.start_1;whiteSpace=wrap;fillColor=#ffe6cc;strokeColor=#d79b00;fontSize=16;fontStyle=1" vertex="1" parent="1">
          <mxGeometry x="375" y="1420" width="100" height="60" as="geometry" />
        </mxCell>
        <mxCell id="DfOeb95ZS5GTr3-IJFD_-14" style="edgeStyle=orthogonalEdgeStyle;rounded=0;orthogonalLoop=1;jettySize=auto;html=1;entryX=0.5;entryY=0;entryDx=0;entryDy=0;entryPerimeter=0;fontSize=16;" edge="1" parent="1" source="DfOeb95ZS5GTr3-IJFD_-5" target="DfOeb95ZS5GTr3-IJFD_-6">
          <mxGeometry relative="1" as="geometry" />
        </mxCell>
        <mxCell id="DfOeb95ZS5GTr3-IJFD_-17" style="edgeStyle=orthogonalEdgeStyle;rounded=0;orthogonalLoop=1;jettySize=auto;html=1;entryX=0.5;entryY=0;entryDx=0;entryDy=0;entryPerimeter=0;fontSize=16;" edge="1" parent="1" source="DfOeb95ZS5GTr3-IJFD_-8" target="DfOeb95ZS5GTr3-IJFD_-9">
          <mxGeometry relative="1" as="geometry" />
        </mxCell>
        <mxCell id="DfOeb95ZS5GTr3-IJFD_-20" value="No" style="text;html=1;align=center;verticalAlign=middle;resizable=0;points=[];autosize=1;strokeColor=none;fillColor=none;fontSize=18;fontStyle=1" vertex="1" parent="1">
          <mxGeometry x="160" y="990" width="50" height="40" as="geometry" />
        </mxCell>
        <mxCell id="DfOeb95ZS5GTr3-IJFD_-21" value="Yes" style="text;html=1;align=center;verticalAlign=middle;resizable=0;points=[];autosize=1;strokeColor=none;fillColor=none;fontSize=18;fontStyle=1" vertex="1" parent="1">
          <mxGeometry x="425" y="1090" width="50" height="40" as="geometry" />
        </mxCell>
        <mxCell id="DfOeb95ZS5GTr3-IJFD_-22" value="&lt;font style=&quot;color: rgb(51, 51, 255);&quot;&gt;Average&lt;/font&gt; from 25 Exam Scores" style="text;html=1;align=center;verticalAlign=middle;resizable=0;points=[];autosize=1;strokeColor=none;fillColor=none;fontSize=24;fontStyle=5" vertex="1" parent="1">
          <mxGeometry x="90" y="123" width="350" height="40" as="geometry" />
        </mxCell>
      </root>
    </mxGraphModel>
  </diagram>
</mxfile>
